<svg viewBox="0 0 94.2 109" xmlns="http://www.w3.org/2000/svg" xmlns:xlink="http://www.w3.org/1999/xlink"><clipPath id="a"><path d="m68.53 40.57c4-4.6 7.79-10.01 11.23-16.29 2.46 5.33 3.84 11.26 3.84 17.52 0 10.68-4.01 20.42-10.6 27.81-6.7 8.19-31.21 30.95-31.21 30.95-10.69-9.92-22.58-21.81-31.68-32.1 11.14 4.96 29.27 8.08 47.28-5.1.18-.13.36-.26.53-.39l.08-.06c6.4-4.89 10.54-12.6 10.54-21.28 0-.35 0-.71-.02-1.06"/></clipPath><linearGradient id="b" gradientTransform="matrix(-82.9249022 111.13080669 108.08524874 80.65233168 -123486.93 91836.8)" gradientUnits="userSpaceOnUse" x1="-1063.39" x2="-1063.01" y1="327.17" y2="327.17"><stop offset="0" stop-color="#0d518a"/><stop offset="1" stop-color="#3e8ac9"/></linearGradient><clipPath id="c"><path d="m35.18 39.57c1.01 0 1.83.82 1.83 1.83s-.82 1.83-1.83 1.83-1.83-.82-1.83-1.83.82-1.83 1.83-1.83m18.49-7.51c1.01 0 1.83.82 1.83 1.83s-.82 1.83-1.83 1.83-1.83-.82-1.83-1.83.82-1.83 1.83-1.83zm-11.38-7.42c1.01 0 1.83.82 1.83 1.83s-.82 1.83-1.83 1.83-1.83-.82-1.83-1.83.82-1.83 1.83-1.83zm-42.02 21.96c3.95 31.61 72.09 35.68 93.93-46.6-13.87 38.14-72.37 69.81-78.63 46.35h-6.18l2.83-3.59h19.46c.54 1.4 1.67 2.4 3.5 2.4s3.75-1.68 3.75-3.75-2.1-3.75-3.75-3.75-2.33.6-3.02 1.52h-10.56l2.83-3.59h25.88c.62 1.23 1.89 2.07 3.36 2.07 2.07 0 3.75-1.68 3.75-3.75s-1.68-3.75-3.75-3.75c-1.37 0-2.58.74-3.23 1.84h-41.7l2.83-3.59h27.5c.65 1.1 1.51 1.84 3.23 1.84s3.75-1.68 3.75-3.75-1.98-3.75-3.75-3.75-2.74.85-3.36 2.08h-17.93c4.9-6.05 12.39-9.91 20.79-9.91 3.19 0 6.25.56 9.09 1.58-6.89-3.62-12.44-9.35-20.79-8.91-9.48.49-21.61 7.89-26.27 16.74-2.46 5.28-3.83 11.22-3.83 17.47 0 .52 0 1.03.03 1.54.02.43.19 2.83.24 3.26z"/></clipPath><linearGradient id="d" gradientTransform="matrix(47.8528141 105.83444942 133.67123314 -60.43915478 7207.73 131275.74)" x1="-1055.24" x2="-1054.84" xlink:href="#b" y1="324.08" y2="324.08"/><clipPath id="e"><path d="m3.83 24.29c8.77-16.65 32.35-15.56 47.06-7.83 6.66 2.4 12.09 7.38 15.1 13.72 3.84-3.37 7.52-7.1 10.89-11.12-7.45-11.47-20.38-19.06-35.08-19.06-16.83 0-31.34 9.95-37.97 24.29"/></clipPath><linearGradient id="f" gradientTransform="matrix(-86.71585657 -24.015841 -15.4162589 55.66467966 -88039.59 -43779.37000000001)" x1="-1073.56" x2="-1073.08" xlink:href="#b" y1="323.7" y2="323.7"/><g clip-path="url(#a)"><path d="m-26.44 73.28 62.85-84.21 83.76 62.5-62.84 84.22z" fill="url(#b)"/></g><path d="m81.91 30c.83 2.83 1.37 5.78 1.58 8.82-8.54 13.05-18.66 21.56-28.76 26.39 1-.64 2-1.33 2.99-2.07l.15-.11.14-.11c6.25-4.77 10.34-12.23 10.53-20.65 4.67-3.58 9.2-7.7 13.36-12.26" fill="#123c63" fill-rule="evenodd"/><g clip-path="url(#c)"><path d="m-30.88 13.96 109.1-49.33 46.88 103.67-109.1 49.33z" fill="url(#d)"/></g><path d="m41.35 104.77c7.39 0 13.39.95 13.39 2.12s-5.99 2.11-13.39 2.11-13.39-.95-13.39-2.11 5.99-2.12 13.39-2.12" fill="#e6e6e5" fill-rule="evenodd"/><g clip-path="url(#e)"><path d="m-3.94 28.03 12.97-46.82 75.61 20.94-12.97 46.82z" fill="url(#f)"/></g></svg>